<?xml version="1.0" encoding="UTF-8"?>
<svg id="Livello_1" data-name="Livello 1" xmlns="http://www.w3.org/2000/svg" viewBox="0 0 255.46 87.55">
  <defs>
    <style>
      .cls-1 {
        fill: #fff;
      }
    </style>
  </defs>
  <g>
    <path class="cls-1" d="M74.63,26.16c.39,4.4,4.02,5.89,7.87,5.89s6.53-1.72,6.53-4.99c0-2.35-1.34-3.67-5.06-4.39l-5.66-1.09c-4.54-.86-8.22-3.13-8.22-8.79s4.84-9.74,11.59-9.74c7.35,0,11.76,3.35,12.36,9.43h-5.4c-.39-3.17-3.07-4.94-6.92-4.94s-6.05,2.04-6.05,4.89c0,2.67,1.6,3.53,4.93,4.21l5.97,1.22c5.06,1,8.09,3.62,8.09,8.83,0,5.89-5.15,9.79-11.98,9.79-7.35,0-13.01-3.22-13.58-10.33h5.53Z"/>
    <path class="cls-1" d="M97.15,12.93h5.53v23.02h-5.53V12.93ZM96.98,3.37h5.88v5.66h-5.88V3.37Z"/>
    <path class="cls-1" d="M132.9,12.39c5.06,0,7.74,3.31,7.74,8.79v14.77h-5.58v-13.5c0-3.67-1.3-5.48-4.02-5.48s-4.71,1.95-4.71,6.43v12.55h-5.53v-13.5c0-3.67-1.3-5.48-4.02-5.48s-4.71,1.95-4.71,6.43v12.55h-5.53V12.93h5.45v3.9c1.04-2.67,3.59-4.44,6.74-4.44,3.67,0,5.71,1.77,6.79,4.48,1.39-2.76,4.15-4.48,7.39-4.48"/>
    <path class="cls-1" d="M149.41,24.82c0,4.48,2.03,7.38,5.53,7.38s5.66-3.03,5.66-7.79-2.08-7.79-5.66-7.79-5.53,2.9-5.53,7.39v.82ZM149.54,43.99h-5.53V12.91h5.45v3.81c1.04-2.31,3.63-4.35,7.05-4.35,5.75,0,9.69,4.94,9.69,12.05s-3.94,12.05-9.69,12.05c-3.33,0-5.84-1.9-6.96-4.21v11.73Z"/>
    <rect class="cls-1" x="169.03" y="2.58" width="5.53" height="33.35"/>
    <path class="cls-1" d="M182.74,22.06h10.34c0-2.85-1.56-5.39-4.89-5.39-2.89,0-4.84,1.86-5.45,5.39M188.32,36.47c-6.4,0-11.11-4.48-11.11-12.01s4.8-12.1,10.98-12.1c6.88,0,10.16,5.48,10.16,11.6v1.86h-15.78c.35,4.08,2.33,6.39,5.75,6.39,2.51,0,4.06-1.22,4.8-3.44h5.1c-.95,4.94-4.88,7.7-9.9,7.7"/>
  </g>
  <g>
    <path class="cls-1" d="M82.36,59.73c4.24,0,6.36-1.81,6.36-5.48s-2.12-5.48-6.36-5.48h-6.66v10.96h6.66ZM75.7,64.45v11.91h-5.62v-32.35h12.75c7.31,0,11.55,3.49,11.55,10.24s-4.24,10.19-11.5,10.19h-7.18Z"/>
    <path class="cls-1" d="M110.38,58.47c-.65-.14-1.43-.18-2.12-.18-3.37,0-6.18,2.45-6.18,7.43v10.65h-5.53v-23.02h5.45v5.16c1.04-3.58,3.59-5.57,6.74-5.57.56,0,1.17.04,1.64.18v5.35Z"/>
    <path class="cls-1" d="M122.04,72.6c3.54,0,5.58-2.9,5.58-7.75s-2.03-7.75-5.58-7.75-5.58,2.94-5.58,7.75,1.99,7.75,5.58,7.75M122.04,76.9c-6.49,0-11.11-4.58-11.11-12.05s4.63-12.05,11.11-12.05,11.11,4.62,11.11,12.05-4.62,12.05-11.11,12.05"/>
    <path class="cls-1" d="M151.69,63.76c0-4.08-2.33-6.75-5.71-6.75-3.55,0-5.62,2.85-5.62,7.25s2.08,7.25,5.62,7.25,5.71-2.68,5.71-6.8v-.95ZM151.47,71.56c-1.04,2.22-3.46,4.21-6.96,4.21-5.8,0-9.68-4.62-9.68-11.5s3.89-11.46,9.68-11.46c3.5,0,6.01,2.09,7.05,4.3v-3.76h5.45v20.75c0,7.52-4.63,10.87-11.15,10.87-5.92,0-9.73-2.58-10.55-7.16h5.49c.61,2.27,2.51,3.08,5.06,3.08,3.5,0,5.62-1.9,5.62-6.07v-3.26Z"/>
    <path class="cls-1" d="M173.78,58.47c-.65-.14-1.43-.18-2.12-.18-3.37,0-6.18,2.45-6.18,7.43v10.65h-5.53v-23.02h5.45v5.16c1.04-3.58,3.59-5.57,6.74-5.57.56,0,1.17.04,1.64.18v5.35Z"/>
    <path class="cls-1" d="M188.31,67.44v-1.41l-4.88.59c-2.34.32-4.11.86-4.11,3.26,0,1.81,1.21,2.94,3.41,2.94,2.86,0,5.58-1.76,5.58-5.39M188.53,72.74c-1.04,2.63-3.81,4.12-7.31,4.12-4.28,0-7.39-2.49-7.39-6.66,0-4.62,3.46-6.52,7.91-7.07l6.57-.77v-1.09c0-2.81-1.64-4.17-4.15-4.17s-3.89,1.4-4.07,3.53h-5.32c.47-4.94,4.15-7.84,9.56-7.84,5.97,0,9.38,2.95,9.38,8.92v8.88c0,2.13.09,3.89.43,5.75h-5.32c-.22-1.27-.3-2.49-.3-3.62"/>
    <path class="cls-1" d="M223.21,52.78c5.06,0,7.74,3.31,7.74,8.79v14.77h-5.58v-13.5c0-3.67-1.3-5.48-4.02-5.48s-4.71,1.95-4.71,6.43v12.55h-5.53v-13.5c0-3.67-1.3-5.48-4.02-5.48s-4.71,1.95-4.71,6.43v12.55h-5.53v-23.02h5.45v3.9c1.04-2.67,3.59-4.44,6.75-4.44,3.67,0,5.71,1.77,6.79,4.48,1.39-2.76,4.15-4.48,7.39-4.48"/>
    <path class="cls-1" d="M237.97,69.36c.26,2.4,2.55,3.49,4.93,3.49s4.15-1,4.15-2.85c0-1.45-.95-2.13-3.37-2.58l-3.89-.72c-3.63-.68-6.31-2.45-6.31-6.57,0-4.35,3.81-7.34,8.91-7.34,5.71,0,8.95,2.63,9.43,7.07h-5.06c-.22-1.81-1.9-2.99-4.32-2.99s-3.85,1.09-3.85,2.67,1.12,2.18,3.37,2.58l4.28.77c3.85.68,6.01,2.9,6.01,6.71,0,4.4-4.02,7.3-9.25,7.3-5.71,0-9.81-2.49-10.29-7.52h5.28Z"/>
  </g>
  <g>
    <path class="cls-1" d="M24.65,3.37H3.22v22.46h21.43V3.37ZM23.29,24.41H4.57V4.79h18.72v19.62Z"/>
    <path class="cls-1" d="M24.65,28.64H3.22v22.46h21.43v-22.46ZM23.29,49.68H4.57v-19.62h18.72v19.62Z"/>
    <rect class="cls-1" x="3.22" y="53.9" width="21.43" height="22.46"/>
    <rect class="cls-1" x="27.33" y="28.64" width="21.43" height="22.46"/>
  </g>
</svg>