<?xml version="1.0" encoding="UTF-8"?>
<svg id="Livello_1" data-name="Livello 1" xmlns="http://www.w3.org/2000/svg" viewBox="0 0 340.59 107.54">
  <defs>
    <style>
      .cls-1 {
        fill: #1d1d1b;
      }
    </style>
  </defs>
  <g>
    <path class="cls-1" d="M97.67,30.79c.53,5.74,5.5,7.69,10.76,7.69s8.93-2.25,8.93-6.5c0-3.07-1.83-4.79-6.92-5.74l-7.75-1.42c-6.21-1.12-11.24-4.08-11.24-11.47S98.08.63,107.31.63c10.05,0,16.08,4.38,16.91,12.3h-7.39c-.53-4.14-4.2-6.45-9.46-6.45s-8.28,2.66-8.28,6.39c0,3.49,2.19,4.61,6.74,5.5l8.16,1.6c6.92,1.3,11.06,4.73,11.06,11.53,0,7.69-7.04,12.77-16.38,12.77-10.05,0-17.8-4.2-18.57-13.48h7.57Z"/>
    <path class="cls-1" d="M128.24,1.04h8.04v7.39h-8.04V1.04ZM128.48,13.52h7.57v30.04h-7.57V13.52Z"/>
    <path class="cls-1" d="M177.37,12.81c6.92,0,10.58,4.32,10.58,11.47v19.28h-7.63v-17.62c0-4.79-1.77-7.15-5.5-7.15s-6.45,2.54-6.45,8.4v16.38h-7.57v-17.62c0-4.79-1.77-7.15-5.5-7.15s-6.45,2.54-6.45,8.4v16.38h-7.57V13.52h7.45v5.09c1.42-3.49,4.91-5.8,9.23-5.8,5.03,0,7.81,2.31,9.28,5.85,1.89-3.61,5.68-5.85,10.11-5.85Z"/>
    <path class="cls-1" d="M200.13,54.05h-7.57V13.48h7.45v4.97c1.42-3.02,4.97-5.68,9.64-5.68,7.86,0,13.25,6.45,13.25,15.73s-5.38,15.73-13.25,15.73c-4.55,0-7.98-2.48-9.52-5.5v15.31ZM199.96,29.04c0,5.85,2.78,9.64,7.57,9.64s7.75-3.96,7.75-10.17-2.84-10.17-7.75-10.17-7.57,3.78-7.57,9.64v1.06Z"/>
    <path class="cls-1" d="M226.78,43.52V0h7.57v43.52h-7.57Z"/>
    <path class="cls-1" d="M253.16,44.23c-8.75,0-15.2-5.85-15.2-15.67s6.56-15.79,15.02-15.79c9.4,0,13.9,7.16,13.9,15.14v2.42h-21.58c.47,5.32,3.19,8.34,7.86,8.34,3.43,0,5.56-1.6,6.56-4.49h6.98c-1.3,6.45-6.68,10.05-13.54,10.05ZM245.53,25.43h14.13c0-3.72-2.13-7.04-6.68-7.04-3.96,0-6.62,2.42-7.45,7.04Z"/>
    <path class="cls-1" d="M99.14,80.75v15.55h-7.69v-42.22h17.44c9.99,0,15.79,4.55,15.79,13.36s-5.8,13.31-15.73,13.31h-9.82ZM108.25,74.6c5.8,0,8.69-2.37,8.69-7.16s-2.9-7.15-8.69-7.15h-9.11v14.31h9.11Z"/>
    <path class="cls-1" d="M146.57,72.95c-.89-.18-1.95-.24-2.9-.24-4.61,0-8.46,3.19-8.46,9.7v13.9h-7.57v-30.04h7.45v6.74c1.42-4.67,4.91-7.27,9.22-7.27.77,0,1.6.06,2.25.24v6.98Z"/>
    <path class="cls-1" d="M162.52,97.02c-8.87,0-15.2-5.97-15.2-15.73s6.33-15.73,15.2-15.73,15.2,6.03,15.2,15.73-6.33,15.73-15.2,15.73ZM162.52,91.4c4.85,0,7.63-3.78,7.63-10.11s-2.78-10.11-7.63-10.11-7.63,3.84-7.63,10.11,2.72,10.11,7.63,10.11Z"/>
    <path class="cls-1" d="M202.77,90.04c-1.42,2.9-4.73,5.5-9.52,5.5-7.92,0-13.25-6.03-13.25-15.02s5.32-14.96,13.25-14.96c4.79,0,8.22,2.72,9.64,5.62v-4.91h7.45v27.08c0,9.82-6.33,14.19-15.26,14.19-8.1,0-13.3-3.37-14.43-9.34h7.51c.83,2.96,3.43,4.02,6.92,4.02,4.79,0,7.69-2.48,7.69-7.92v-4.26ZM203.06,79.87c0-5.32-3.19-8.81-7.81-8.81-4.85,0-7.69,3.73-7.69,9.46s2.84,9.46,7.69,9.46,7.81-3.49,7.81-8.87v-1.24Z"/>
    <path class="cls-1" d="M233.28,72.95c-.89-.18-1.95-.24-2.9-.24-4.61,0-8.46,3.19-8.46,9.7v13.9h-7.57v-30.04h7.45v6.74c1.42-4.67,4.91-7.27,9.22-7.27.77,0,1.6.06,2.25.24v6.98Z"/>
    <path class="cls-1" d="M253.45,91.58c-1.42,3.43-5.2,5.38-9.99,5.38-5.85,0-10.11-3.25-10.11-8.69,0-6.03,4.73-8.51,10.82-9.22l8.99-1v-1.42c0-3.67-2.25-5.44-5.68-5.44s-5.32,1.83-5.56,4.61h-7.27c.65-6.45,5.68-10.23,13.07-10.23,8.16,0,12.83,3.85,12.83,11.65v11.59c0,2.78.12,5.09.59,7.51h-7.27c-.3-1.66-.41-3.25-.41-4.73ZM253.16,84.66v-1.83l-6.68.77c-3.19.41-5.62,1.12-5.62,4.26,0,2.37,1.66,3.84,4.67,3.84,3.9,0,7.63-2.31,7.63-7.04Z"/>
    <path class="cls-1" d="M300.88,65.53c6.92,0,10.58,4.32,10.58,11.47v19.28h-7.63v-17.62c0-4.79-1.77-7.15-5.5-7.15s-6.45,2.54-6.45,8.4v16.38h-7.57v-17.62c0-4.79-1.77-7.15-5.5-7.15s-6.45,2.54-6.45,8.4v16.38h-7.57v-30.04h7.45v5.09c1.42-3.49,4.91-5.8,9.23-5.8,5.03,0,7.81,2.31,9.28,5.85,1.89-3.61,5.68-5.85,10.11-5.85Z"/>
    <path class="cls-1" d="M321.08,87.17c.35,3.13,3.49,4.55,6.74,4.55s5.68-1.3,5.68-3.72c0-1.89-1.3-2.78-4.61-3.37l-5.32-.95c-4.97-.89-8.63-3.19-8.63-8.57,0-5.68,5.2-9.58,12.18-9.58,7.81,0,12.24,3.43,12.89,9.23h-6.92c-.3-2.37-2.6-3.9-5.91-3.9s-5.26,1.42-5.26,3.49,1.54,2.84,4.61,3.37l5.85,1c5.26.89,8.22,3.78,8.22,8.75,0,5.74-5.5,9.52-12.66,9.52-7.81,0-13.42-3.25-14.07-9.82h7.21Z"/>
  </g>
  <g>
    <path class="cls-1" d="M27.46,2.89v25.61H1.85V2.89h25.61M29.31,1.04H0v29.31h29.31V1.04h0Z"/>
    <path class="cls-1" d="M27.46,35.87v25.61H1.85v-25.61h25.61M29.31,34.02H0v29.31h29.31v-29.31h0Z"/>
    <rect class="cls-1" y="66.99" width="29.31" height="29.31"/>
    <rect class="cls-1" x="32.98" y="34.02" width="29.31" height="29.31"/>
  </g>
</svg>